<?xml version="1.0" encoding="UTF-8" standalone="no"?>
<svg 
  width="1200" 
  height="800" 
  viewBox="0 0 1200 800" 
  xmlns="http://www.w3.org/2000/svg"
  fill="currentColor"
>
  <!-- Base camp with proper tent designs -->
  <g>
    <!-- Tent 1 -->
    <path 
      d="M100,800 
         L120,720
         L140,800
         Z" 
    />
    <path 
      d="M105,800
         L120,720
         L135,800
         Z" 
      fill-opacity="0.7"
    />
    
    <!-- Tent 2 -->
    <path 
      d="M220,800 
         L240,700
         L260,800
         Z" 
    />
    <path 
      d="M225,800
         L240,700
         L255,800
         Z" 
      fill-opacity="0.7"
    />
    
    <!-- Tent 3 -->
    <path 
      d="M360,800 
         L380,690
         L400,800
         Z" 
    />
    <path 
      d="M365,800
         L380,690
         L395,800
         Z" 
      fill-opacity="0.7"
    />
    
    <!-- Tent 4 -->
    <path 
      d="M500,800 
         L520,710
         L540,800
         Z" 
    />
    <path 
      d="M505,800
         L520,710
         L535,800
         Z" 
      fill-opacity="0.7"
    />
    
    <!-- Tent 5 -->
    <path 
      d="M640,800 
         L660,720
         L680,800
         Z" 
    />
    <path 
      d="M645,800
         L660,720
         L675,800
         Z" 
      fill-opacity="0.7"
    />
    
    <!-- Tent 6 -->
    <path 
      d="M780,800 
         L800,680
         L820,800
         Z" 
    />
    <path 
      d="M785,800
         L800,680
         L815,800
         Z" 
      fill-opacity="0.7"
    />
    
    <!-- Tent 7 -->
    <path 
      d="M920,800 
         L940,730
         L960,800
         Z" 
    />
    <path 
      d="M925,800
         L940,730
         L955,800
         Z" 
      fill-opacity="0.7"
    />
    
    <!-- Tent 8 -->
    <path 
      d="M1060,800 
         L1080,700
         L1100,800
         Z" 
    />
    <path 
      d="M1065,800
         L1080,700
         L1095,800
         Z" 
      fill-opacity="0.7"
    />
    
    <!-- Tent entrance lines -->
    <path d="M120,800 L120,760" stroke="currentColor" stroke-width="1.5" />
    <path d="M240,800 L240,740" stroke="currentColor" stroke-width="1.5" />
    <path d="M380,800 L380,730" stroke="currentColor" stroke-width="1.5" />
    <path d="M520,800 L520,750" stroke="currentColor" stroke-width="1.5" />
    <path d="M660,800 L660,760" stroke="currentColor" stroke-width="1.5" />
    <path d="M800,800 L800,720" stroke="currentColor" stroke-width="1.5" />
    <path d="M940,800 L940,750" stroke="currentColor" stroke-width="1.5" />
    <path d="M1080,800 L1080,740" stroke="currentColor" stroke-width="1.5" />
  </g>
  
  <!-- Network of connection points -->
  <circle cx="200" cy="600" r="15" fill-opacity="0.3" />
  <circle cx="400" cy="500" r="12" fill-opacity="0.25" />
  <circle cx="600" cy="450" r="18" fill-opacity="0.35" />
  <circle cx="800" cy="550" r="10" fill-opacity="0.2" />
  <circle cx="1000" cy="480" r="14" fill-opacity="0.3" />
  
  <!-- Connection lines between nodes -->
  <path d="M200,600 L400,500" stroke="currentColor" stroke-width="2" stroke-opacity="0.1" />
  <path d="M400,500 L600,450" stroke="currentColor" stroke-width="2" stroke-opacity="0.1" />
  <path d="M600,450 L800,550" stroke="currentColor" stroke-width="2" stroke-opacity="0.1" />
  <path d="M800,550 L1000,480" stroke="currentColor" stroke-width="2" stroke-opacity="0.1" />
  <path d="M200,600 L600,450" stroke="currentColor" stroke-width="1" stroke-opacity="0.1" />
  <path d="M400,500 L800,550" stroke="currentColor" stroke-width="1" stroke-opacity="0.1" />
  <path d="M600,450 L1000,480" stroke="currentColor" stroke-width="1" stroke-opacity="0.1" />
  
  <!-- Additional connection points for a richer network -->
  <circle cx="300" cy="420" r="8" fill-opacity="0.25" />
  <circle cx="500" cy="380" r="10" fill-opacity="0.3" />
  <circle cx="700" cy="420" r="12" fill-opacity="0.25" />
  <circle cx="900" cy="380" r="9" fill-opacity="0.2" />
  
  <!-- Additional connection lines -->
  <path d="M300,420 L400,500" stroke="currentColor" stroke-width="1" stroke-opacity="0.1" />
  <path d="M300,420 L500,380" stroke="currentColor" stroke-width="1" stroke-opacity="0.1" />
  <path d="M500,380 L600,450" stroke="currentColor" stroke-width="1" stroke-opacity="0.1" />
  <path d="M500,380 L700,420" stroke="currentColor" stroke-width="1" stroke-opacity="0.1" />
  <path d="M700,420 L800,550" stroke="currentColor" stroke-width="1" stroke-opacity="0.1" />
  <path d="M700,420 L900,380" stroke="currentColor" stroke-width="1" stroke-opacity="0.1" />
  <path d="M900,380 L1000,480" stroke="currentColor" stroke-width="1" stroke-opacity="0.1" />
  
  <!-- Background grid pattern -->
  <path d="M0,700 H1200" stroke="currentColor" stroke-width="1" stroke-opacity="0.05" />
  <path d="M0,600 H1200" stroke="currentColor" stroke-width="1" stroke-opacity="0.05" />
  <path d="M0,500 H1200" stroke="currentColor" stroke-width="1" stroke-opacity="0.05" />
  <path d="M0,400 H1200" stroke="currentColor" stroke-width="1" stroke-opacity="0.05" />
  <path d="M200,800 V400" stroke="currentColor" stroke-width="1" stroke-opacity="0.05" />
  <path d="M400,800 V400" stroke="currentColor" stroke-width="1" stroke-opacity="0.05" />
  <path d="M600,800 V400" stroke="currentColor" stroke-width="1" stroke-opacity="0.05" />
  <path d="M800,800 V400" stroke="currentColor" stroke-width="1" stroke-opacity="0.05" />
  <path d="M1000,800 V400" stroke="currentColor" stroke-width="1" stroke-opacity="0.05" />
</svg>