<?xml version="1.0" encoding="UTF-8" standalone="no"?>
<svg 
  width="1200" 
  height="800" 
  viewBox="0 0 1200 800" 
  xmlns="http://www.w3.org/2000/svg"
  fill="currentColor"
>
  <!-- Main everyst peak -->
  <path 
    d="M0,800 
       L120,650 
       L180,690 
       L250,590
       L290,630 
       L340,580 
       L370,610 
       L430,520 
       L480,570 
       L520,480 
       L570,520 
       L600,450 
       L640,490 
       L680,380 
       L710,420 
       L750,300 
       L790,340 
       L830,240 
       L870,280 
       L910,200 
       L930,210 
       L950,180 
       L970,190 
       L990,150 
       L1010,170 
       L1030,130 
       L1050,140 
       L1070,100 
       L1100,120 
       L1150,220 
       L1200,180 
       L1200,800 Z" 
  />
  
  <!-- Background ranges with varying heights -->
  <path 
    d="M0,800 
       L100,700 
       L200,750 
       L300,650 
       L400,700 
       L500,600 
       L600,650 
       L700,550 
       L800,590 
       L900,520 
       L1000,580 
       L1100,510 
       L1200,540 
       L1200,800 Z" 
    fill-opacity="0.3"
  />
  
  <!-- Distant background range -->
  <path 
    d="M0,800 
       L150,720 
       L300,760 
       L450,710 
       L600,750 
       L750,700 
       L900,740 
       L1050,690 
       L1200,730 
       L1200,800 Z" 
    fill-opacity="0.2"
  />
</svg>