<?xml version="1.0" encoding="UTF-8"?>
<svg id="Layer_2" data-name="Layer 2" xmlns="http://www.w3.org/2000/svg" viewBox="0 0 1972.85 1203.19">
  <defs>
    <style>
      .cls-1 {
        fill: #4464ae;
      }

      .cls-2 {
        fill: #4464ad;
      }

      .cls-3 {
        fill: #27387b;
      }
    </style>
  </defs>
  <g id="Layer_1-2" data-name="Layer 1">
    <path d="M1057.69,2.27c-19.84,8.09-103.64,134.06-125.56,156.64l145.56,359.36,3.89,9.09c32.73,16.39,237.46,193.77,253.08,191.06,3.31-.57,4.43-1.82,5.19-5l67.61-212.2L1063.43.47c-2.95-1.56-4.26,1.19-5.74,1.8Z"/>
    <path d="M911.5,186.48c-6.23-3.87-17.63,10.68-21.86,14.74-61.62,59.24-117.21,134.95-177.44,196.56l-154.5,442.48,12.12-2.86,290.29-285.71,93.48-246.68c-4.55-14.13-36.75-115.21-42.09-118.53Z"/>
    <path d="M912.18,827.77l6.18,2.06,147.27-252.78c-28.38-78.05-57.77-156.72-94.92-230.85l-114.91,271.19,56.37,210.38Z"/>
    <path d="M531.69,466.27L95.64,1069.22l-1.94,9.04,461.36-306.59c13.59-33.91,23.91-69.19,36.63-103.4,29.51-79.38,59.57-158.8,83.99-239.99l-143.99,37.99Z"/>
    <path d="M1437.64,516.29l-82.15,221.02c2.26,5.05,47.78,34.51,56.21,41.95,12.04,10.62,77.78,81.21,83.47,82.67,20.04,5.14,153.09-47.66,184.5-47.66l-242.03-297.97Z"/>
    <path d="M1101.13,584.6c-12.61,3.88-116.36,202.3-136.34,225.81l-.07,9.79,427.09,382.98c103.24-5.25,210.06.81,312.95-4.85,24.66-1.36,50.71,5.39,31.95-20.09-95.4-129.51-231.86-248.25-330.04-377.96l-297.09-214.94c-2.65-1.51-5.57-1.64-8.45-.76Z"/>
    <polygon points="533.69 1200.27 602.69 1200.27 887.28 868.77 836.73 640.23 830.65 632.11 548.75 894.33 533.69 1200.27"/>
    <path d="M507.69,1200.27l17.07-378.04L4.99,1188.56c-5.11,3.04-7.9,11.71-.3,11.71h503Z"/>
    <path d="M1520.21,884.78c-1.69,1.73-2.76,5.05-1.57,7.4l268.26,303.87,185.95-1.67-275.26-363.17c-25.35,11.02-165.42,41.33-177.37,53.57Z"/>
    <path d="M1123.69,1202.27c71.64-.17,143.33.11,214.99.01l.67-4.67-383.66-347.34-9.12-2.14-298.98,341.03-1.04,11.25c158.96,3.13,318.14,2.23,477.14,1.86Z"/>
    <path class="cls-1" d="M1101.13,584.6c2.88-.88,5.79-.75,8.45.76l297.09,214.94c98.18,129.71,234.64,248.45,330.04,377.96,18.77,25.48-7.29,18.73-31.95,20.09-102.89,5.66-209.71-.41-312.95,4.85l-427.09-382.98.07-9.79c19.97-23.52,123.73-221.94,136.34-225.81Z"/>
    <polygon class="cls-3" points="533.69 1200.27 548.75 894.33 830.65 632.11 836.73 640.23 887.28 868.77 602.69 1200.27 533.69 1200.27"/>
    <path class="cls-3" d="M507.69,1200.27H4.69c-7.6,0-4.82-8.67.3-11.71l519.78-366.34-17.07,378.04Z"/>
    <path class="cls-3" d="M911.5,186.48c5.34,3.32,37.54,104.4,42.09,118.53l-93.48,246.68-290.29,285.71-12.12,2.86,154.5-442.48c60.23-61.61,115.82-137.32,177.44-196.56,4.23-4.07,15.63-18.61,21.86-14.74Z"/>
    <path class="cls-3" d="M955.69,850.27l168,352c-158.99.37-318.17,1.27-477.14-1.86l1.04-11.25,298.98-341.03,9.12,2.14Z"/>
    <path class="cls-3" d="M531.69,466.27l60,202c-12.71,34.21-23.04,69.49-36.63,103.4l-461.36,306.59,1.94-9.04,436.05-602.95Z"/>
    <path class="cls-1" d="M1057.69,2.27c1.48-.61,2.79-3.36,5.74-1.8l344.03,500.75-67.61,212.2c-.76,3.18-1.89,4.42-5.19,5-15.62,2.71-220.35-174.67-253.08-191.06l-3.89-9.09,159.97,3.03L1057.69,2.27Z"/>
    <path class="cls-3" d="M1057.69,2.27l179.97,519.03-159.97-3.03-145.56-359.36c21.92-22.59,105.72-148.55,125.56-156.64Z"/>
    <path class="cls-1" d="M1520.21,884.78c11.95-12.23,152.02-42.55,177.37-53.57l275.26,363.17-185.95,1.67-268.26-303.87c-1.19-2.36-.12-5.67,1.57-7.4Z"/>
    <path class="cls-1" d="M1437.64,516.29l242.03,297.97c-31.41,0-164.46,52.8-184.5,47.66-5.69-1.46-71.43-72.05-83.47-82.67-8.44-7.44-53.95-36.9-56.21-41.95l82.15-221.02Z"/>
    <path class="cls-3" d="M912.18,827.77l-56.37-210.38,114.91-271.19c37.15,74.13,66.55,152.8,94.92,230.85l-147.27,252.78-6.18-2.06Z"/>
    <path class="cls-1" d="M955.69,850.27l383.66,347.34-.67,4.67c-71.66.1-143.35-.18-214.99-.01l-168-352Z"/>
    <path class="cls-2" d="M531.69,466.27l143.99-37.99c-24.43,81.19-54.49,160.61-83.99,239.99l-60-202Z"/>
  </g>
</svg>